<svg width="38" height="38" viewBox="0 0 38 38" fill="none" xmlns="http://www.w3.org/2000/svg">
<g clip-path="url(#clip0)">
<path d="M38 19.1164C38 8.55712 29.4927 -0.00238037 19 -0.00238037C8.50247 -5.37094e-06 -0.004776 8.55712 -0.004776 19.1187C-0.004776 28.6591 6.94447 36.5679 16.0265 38.0024V24.643H11.2052V19.1187H16.0312V14.9031C16.0312 10.1127 18.8693 7.46699 23.2085 7.46699C25.289 7.46699 27.4621 7.83987 27.4621 7.83987V12.5424H25.0657C22.7073 12.5424 21.9711 14.0172 21.9711 15.5301V19.1164H27.2388L26.3981 24.6406H21.9687V38C31.0507 36.5655 38 28.6567 38 19.1164Z" fill="white"/>
</g>
<defs>
<clipPath id="clip0">
<rect width="38" height="38" fill="white"/>
</clipPath>
</defs>
</svg>
